<svg width="32" height="26" viewBox="0 0 32 26" fill="none" xmlns="http://www.w3.org/2000/svg">
<path d="M29.7225 25.5C30.8387 23.5666 31.5632 21.4323 31.8546 19.219C32.146 17.0056 31.9986 14.7565 31.4208 12.6001C30.843 10.4437 29.8461 8.42221 28.487 6.65107C27.128 4.87994 25.4334 3.39382 23.5 2.27759C21.5666 1.16135 19.4323 0.436853 17.219 0.145457C15.0056 -0.145939 12.7565 0.0014746 10.6001 0.579281C8.44369 1.15709 6.42221 2.15397 4.65107 3.51301C2.87994 4.87206 1.39382 6.56664 0.277587 8.50002L4.95463 11.2003C5.71626 9.88113 6.73026 8.72489 7.93874 7.79759C9.14722 6.87029 10.5265 6.19009 11.9979 5.79585C13.4692 5.4016 15.0038 5.30102 16.514 5.49984C18.0243 5.69867 19.4805 6.193 20.7997 6.95463C22.1189 7.71626 23.2752 8.73026 24.2025 9.93874C25.1298 11.1472 25.8099 12.5265 26.2042 13.9979C26.5984 15.4692 26.699 17.0038 26.5002 18.514C26.3014 20.0243 25.807 21.4805 25.0454 22.7997L29.7225 25.5Z" fill="#F6B5CC"/>
</svg>
