<svg width="182" height="204" viewBox="0 0 182 204" fill="none" xmlns="http://www.w3.org/2000/svg">
<g filter="url(#filter0_d_3_17)">
<rect x="53.0117" y="46.7367" width="92" height="92" rx="8" transform="rotate(-30.5227 53.0117 46.7367)" fill="#655D8E"/>
</g>
<path d="M110.343 41C114.677 41 118.834 42.7218 121.899 45.7867C124.964 48.8516 126.686 53.0085 126.686 57.3429C126.686 61.3909 125.202 65.112 122.763 67.9783L123.442 68.6571H125.429L138 81.2286L134.229 85L121.657 72.4286V70.4423L120.978 69.7634C118.112 72.2023 114.391 73.6857 110.343 73.6857C106.008 73.6857 101.852 71.9639 98.7867 68.899C95.7218 65.8341 94 61.6773 94 57.3429C94 53.0085 95.7218 48.8516 98.7867 45.7867C101.852 42.7218 106.008 41 110.343 41ZM110.343 46.0286C104.057 46.0286 99.0286 51.0571 99.0286 57.3429C99.0286 63.6286 104.057 68.6571 110.343 68.6571C116.629 68.6571 121.657 63.6286 121.657 57.3429C121.657 51.0571 116.629 46.0286 110.343 46.0286Z" fill="white"/>
<defs>
<filter id="filter0_d_3_17" x="0.964844" y="2.96497" width="180.07" height="200.07" filterUnits="userSpaceOnUse" color-interpolation-filters="sRGB">
<feFlood flood-opacity="0" result="BackgroundImageFix"/>
<feColorMatrix in="SourceAlpha" type="matrix" values="0 0 0 0 0 0 0 0 0 0 0 0 0 0 0 0 0 0 127 0" result="hardAlpha"/>
<feOffset dx="-25" dy="50"/>
<feGaussianBlur stdDeviation="15"/>
<feColorMatrix type="matrix" values="0 0 0 0 0 0 0 0 0 0 0 0 0 0 0 0 0 0 0.25 0"/>
<feBlend mode="normal" in2="BackgroundImageFix" result="effect1_dropShadow_3_17"/>
<feBlend mode="normal" in="SourceGraphic" in2="effect1_dropShadow_3_17" result="shape"/>
</filter>
</defs>
</svg>
