<svg width="68" height="68" viewBox="0 0 68 68" fill="none" xmlns="http://www.w3.org/2000/svg">
<rect y="33.6476" width="47.5848" height="47.5848" rx="8" transform="rotate(-45 0 33.6476)" fill="#4BEE6F"/>
<path d="M29.3334 27.0001C29.3334 27.6189 29.0876 28.2124 28.65 28.65C28.2124 29.0876 27.6189 29.3334 27.0001 29.3334C26.3812 29.3334 25.7878 29.0876 25.3502 28.65C24.9126 28.2124 24.6667 27.6189 24.6667 27.0001C24.6667 26.3812 24.9126 25.7878 25.3502 25.3502C25.7878 24.9126 26.3812 24.6667 27.0001 24.6667C27.6189 24.6667 28.2124 24.9126 28.65 25.3502C29.0876 25.7878 29.3334 26.3812 29.3334 27.0001Z" fill="white"/>
<path d="M29.3334 34.0001C29.3334 34.6189 29.0876 35.2124 28.65 35.65C28.2124 36.0876 27.6189 36.3334 27.0001 36.3334C26.3812 36.3334 25.7878 36.0876 25.3502 35.65C24.9126 35.2124 24.6667 34.6189 24.6667 34.0001C24.6667 33.3812 24.9126 32.7878 25.3502 32.3502C25.7878 31.9126 26.3812 31.6667 27.0001 31.6667C27.6189 31.6667 28.2124 31.9126 28.65 32.3502C29.0876 32.7878 29.3334 33.3812 29.3334 34.0001Z" fill="white"/>
<path d="M28.2964 42.2964C27.9526 42.6403 27.4863 42.8334 27.0001 42.8334C26.5139 42.8334 26.0475 42.6403 25.7037 42.2964C25.3599 41.9526 25.1667 41.4863 25.1667 41.0001C25.1667 40.5139 25.3599 40.0475 25.7037 39.7037C26.0475 39.3599 26.5139 39.1667 27.0001 39.1667C27.4863 39.1667 27.9526 39.3599 28.2964 39.7037C28.6403 40.0475 28.8334 40.5139 28.8334 41.0001C28.8334 41.4863 28.6403 41.9526 28.2964 42.2964Z" stroke="white"/>
<path d="M36.3334 27.0001C36.3334 27.6189 36.0876 28.2124 35.65 28.65C35.2124 29.0876 34.6189 29.3334 34.0001 29.3334C33.3812 29.3334 32.7878 29.0876 32.3502 28.65C31.9126 28.2124 31.6667 27.6189 31.6667 27.0001C31.6667 26.3812 31.9126 25.7878 32.3502 25.3502C32.7878 24.9126 33.3812 24.6667 34.0001 24.6667C34.6189 24.6667 35.2124 24.9126 35.65 25.3502C36.0876 25.7878 36.3334 26.3812 36.3334 27.0001Z" fill="white"/>
<path d="M34.0001 36.3334C34.6189 36.3334 35.2124 36.0876 35.65 35.65C36.0876 35.2124 36.3334 34.6189 36.3334 34.0001C36.3334 33.3812 36.0876 32.7878 35.65 32.3502C35.2124 31.9126 34.6189 31.6667 34.0001 31.6667C33.3812 31.6667 32.7878 31.9126 32.3502 32.3502C31.9126 32.7878 31.6667 33.3812 31.6667 34.0001C31.6667 34.6189 31.9126 35.2124 32.3502 35.65C32.7878 36.0876 33.3812 36.3334 34.0001 36.3334Z" fill="white"/>
<path d="M35.8334 41.0001C35.8334 41.4863 35.6403 41.9526 35.2964 42.2964C34.9526 42.6403 34.4863 42.8334 34.0001 42.8334C33.5139 42.8334 33.0475 42.6403 32.7037 42.2964C32.3599 41.9526 32.1667 41.4863 32.1667 41.0001C32.1667 40.5139 32.3599 40.0475 32.7037 39.7037C33.0475 39.3599 33.5139 39.1667 34.0001 39.1667C34.4863 39.1667 34.9526 39.3599 35.2964 39.7037C35.6403 40.0475 35.8334 40.5139 35.8334 41.0001Z" stroke="white"/>
<path d="M41.0001 29.3334C41.6189 29.3334 42.2124 29.0876 42.65 28.65C43.0876 28.2124 43.3334 27.6189 43.3334 27.0001C43.3334 26.3812 43.0876 25.7878 42.65 25.3502C42.2124 24.9126 41.6189 24.6667 41.0001 24.6667C40.3812 24.6667 39.7878 24.9126 39.3502 25.3502C38.9126 25.7878 38.6667 26.3812 38.6667 27.0001C38.6667 27.6189 38.9126 28.2124 39.3502 28.65C39.7878 29.0876 40.3812 29.3334 41.0001 29.3334Z" fill="white"/>
<path d="M42.8334 34.0001C42.8334 34.4863 42.6403 34.9526 42.2964 35.2964C41.9526 35.6403 41.4863 35.8334 41.0001 35.8334C40.5139 35.8334 40.0475 35.6403 39.7037 35.2964C39.3599 34.9526 39.1667 34.4863 39.1667 34.0001C39.1667 33.5139 39.3599 33.0475 39.7037 32.7037C40.0475 32.3599 40.5139 32.1667 41.0001 32.1667C41.4863 32.1667 41.9526 32.3599 42.2964 32.7037C42.6403 33.0475 42.8334 33.5139 42.8334 34.0001Z" stroke="white"/>
<path d="M42.2964 42.2964C41.9526 42.6403 41.4863 42.8334 41.0001 42.8334C40.5139 42.8334 40.0475 42.6403 39.7037 42.2964C39.3599 41.9526 39.1667 41.4863 39.1667 41.0001C39.1667 40.5139 39.3599 40.0475 39.7037 39.7037C40.0475 39.3599 40.5139 39.1667 41.0001 39.1667C41.4863 39.1667 41.9526 39.3599 42.2964 39.7037C42.6403 40.0475 42.8334 40.5139 42.8334 41.0001C42.8334 41.4863 42.6403 41.9526 42.2964 42.2964Z" stroke="white"/>
</svg>
