<svg width="46" height="46" viewBox="0 0 46 46" fill="none" xmlns="http://www.w3.org/2000/svg">
<path d="M23 0C10.2733 0 0 10.2733 0 23C0 35.7267 10.2733 46 23 46C35.7267 46 46 35.7267 46 23C46 10.2733 35.7267 0 23 0ZM23 2.7025C25.3 2.7025 27.5233 3.12417 29.5742 3.83333L23.2492 17.4992C23.1725 17.5758 23.1725 17.7483 23 17.7483C22.8275 17.7483 22.8275 17.5758 22.7508 17.4992L16.4258 3.83333C18.4767 3.12417 20.7 2.72167 23 2.72167V2.7025ZM13.225 5.25167L20.5467 21.0258C20.7 21.3517 20.8725 21.4475 21.0833 21.4475H24.9167C25.1467 21.4475 25.3 21.3517 25.4725 21.0258L32.6983 5.25167C35.7267 6.97667 38.3333 9.44917 40.1733 12.4008L29.9 32.2767C29.8233 32.4492 29.7083 32.5258 29.6508 32.5258C29.4975 32.5258 29.4975 32.3725 29.4017 32.2767L25.4725 23.575C25.3 23.2492 25.1467 23.1725 24.9167 23.1725H21.0833C20.8725 23.1725 20.7 23.2492 20.5275 23.575L16.5983 32.2767C16.5025 32.3725 16.5217 32.5258 16.3492 32.5258C16.1767 32.5258 16.1767 32.3725 16.1 32.2767L5.75 12.4008C7.55167 9.44917 10.1967 6.97667 13.225 5.25167ZM3.94833 16.3492L15.7742 39.3492C15.9275 39.675 16.1 39.9242 16.5217 39.9242C16.9242 39.9242 17.0775 39.675 17.25 39.3492L22.7508 27.1017C22.8275 26.9483 22.9233 26.8333 23 26.8333C23.1725 26.8333 23.1725 27.025 23.2492 27.1017L28.8267 39.3492C28.9992 39.675 29.1525 39.9242 29.5742 39.9242C29.9767 39.9242 30.1492 39.675 30.3025 39.3492L42.1667 16.3492C42.8758 18.4 43.2975 20.6233 43.2975 23C43.2017 34.0975 34.0975 43.2975 23 43.2975C11.9025 43.2975 2.79833 34.0975 2.79833 23C2.79833 20.7 3.20083 18.4958 3.94833 16.3492Z" fill="#1FCAF0"/>
</svg>
